# xmcd CD database file
#
# Track frame offsets:
#	150
#	35395
#	61307
#	101875
#	128287
#	167450
#	196655
#	220642
#
# Disc length: 3406 seconds
#
# Revision: 0
# Processed by: cddbd v1.5.2PL0 Copyright (c) Steve Scherf et al.
# Submitted via: CDex 1.70beta2
#
DISCID=5d0d4c08
DTITLE=Plinio Oliveira - Vôos da Alma
DYEAR=1900
DGENRE=New Age
TTITLE0=A Chuva
TTITLE1=O Tempo
TTITLE2=O Espaço
TTITLE3=As Águas
TTITLE4=A Cidade dos Espíritos
TTITLE5=As Aves
TTITLE6=O Pai
TTITLE7=O Bem e O Mal
EXTD=
EXTT0=
EXTT1=
EXTT2=
EXTT3=
EXTT4=
EXTT5=
EXTT6=
EXTT7=
PLAYORDER=
